<svg width="200" height="152" viewBox="0 0 200 152" fill="none" xmlns="http://www.w3.org/2000/svg">
<g clip-path="url(#clip0_4329_48863)">
<path d="M65.6519 151.224C65.6519 151.503 65.8761 151.727 66.1552 151.727H199.497C199.776 151.727 200 151.503 200 151.224C200 150.945 199.776 150.721 199.497 150.721H66.1552C65.8761 150.721 65.6519 150.945 65.6519 151.224Z" fill="#CCCCCC"/>
<path d="M128.981 10.7676H8.04389C3.6075 10.7676 0 14.375 0 18.8114V143.555C0 147.991 3.6075 151.599 8.04389 151.599H128.981C133.418 151.599 137.025 147.991 137.025 143.555V18.8114C137.025 14.375 133.418 10.7676 128.981 10.7676ZM136.179 143.555C136.179 147.526 132.952 150.753 128.981 150.753H8.04389C4.0727 150.753 0.845834 147.526 0.845834 143.555V18.8114C0.845834 14.8403 4.07269 11.6134 8.04389 11.6134H128.981C132.952 11.6134 136.179 14.8403 136.179 18.8114V143.555Z" fill="#3F3D56"/>
<path d="M54.569 18.9512H42.7019C42.1056 18.9512 41.6193 19.4375 41.6193 20.0338C41.6193 20.6344 42.1056 21.1207 42.7019 21.1207H54.569C55.1653 21.1207 55.6517 20.6344 55.6517 20.0338C55.6517 19.4375 55.1653 18.9512 54.569 18.9512Z" fill="#E6E6E6"/>
<path d="M74.4461 18.9512H62.579C61.9827 18.9512 61.4963 19.4375 61.4963 20.0338C61.4963 20.6344 61.9827 21.1207 62.579 21.1207H74.4461C75.0424 21.1207 75.5288 20.6344 75.5288 20.0338C75.5288 19.4375 75.0424 18.9512 74.4461 18.9512Z" fill="#E6E6E6"/>
<path d="M94.3232 18.9512H82.4561C81.8598 18.9512 81.3735 19.4375 81.3735 20.0338C81.3735 20.6344 81.8598 21.1207 82.4561 21.1207H94.3232C94.9195 21.1207 95.4059 20.6344 95.4059 20.0338C95.4059 19.4375 94.9195 18.9512 94.3232 18.9512Z" fill="#E6E6E6"/>
<path d="M130.695 49.6026L110.452 63.5134L107.956 60.8156L126.578 45.2129L130.695 49.6026Z" fill="#A0616A"/>
<path d="M108.892 65.8845C110.884 64.2844 111.729 62.0282 110.779 60.8453C109.829 59.6624 107.443 60.0006 105.451 61.6007C103.459 63.2009 102.614 65.457 103.564 66.64C104.514 67.8229 106.899 67.4847 108.892 65.8845Z" fill="#A0616A"/>
<path d="M141.088 149.294L137.242 149.293L135.412 134.457L141.089 134.457L141.088 149.294Z" fill="#A0616A"/>
<path d="M127.91 149.207C127.79 149.409 127.727 150.06 127.727 150.294C127.727 151.015 128.311 151.6 129.032 151.6H140.944C141.436 151.6 141.835 151.201 141.835 150.709V150.213C141.835 150.213 142.424 148.723 141.211 146.885C141.211 146.885 139.703 148.324 137.45 146.071L136.785 144.867L131.976 148.385L129.31 148.713C128.727 148.784 128.21 148.702 127.91 149.207Z" fill="#2F2E41"/>
<path d="M154.086 149.294L150.24 149.293L148.41 134.457L154.087 134.457L154.086 149.294Z" fill="#A0616A"/>
<path d="M140.908 149.207C140.789 149.409 140.725 150.06 140.725 150.294C140.725 151.015 141.31 151.6 142.031 151.6H153.943C154.434 151.6 154.833 151.201 154.833 150.709V150.213C154.833 150.213 155.422 148.723 154.209 146.885C154.209 146.885 152.701 148.324 150.448 146.071L149.784 144.867L144.974 148.385L142.309 148.713C141.725 148.784 141.208 148.702 140.908 149.207Z" fill="#2F2E41"/>
<path d="M134.468 66.6016L130.061 108.902C130.061 108.902 133.146 137.763 133.807 137.763C134.468 137.763 135.129 138.308 134.468 138.916C133.807 139.525 132.925 139.966 133.807 139.966C134.688 139.966 134.795 139.697 134.741 140.603C134.688 141.508 134.027 142.169 134.027 142.169L143.06 141.508L141.958 111.986L146.144 88.4126C146.144 88.4126 147.466 137.543 147.907 137.983C148.347 138.424 148.347 137.322 148.347 138.424C148.347 139.525 147.907 139.966 147.907 139.966L147.886 142.169H154.443L163.769 80.9219L162.227 65.5L134.468 66.6016Z" fill="#2F2E41"/>
<path d="M156.058 20.9961H148.127L143.369 22.187C140.799 23.7128 136.192 28.2537 136.308 31.2401L137.332 57.5681C137.332 57.5681 133.827 65.8289 134.488 65.8289C135.149 65.8289 131.934 68.4737 131.934 70.0159C131.934 71.5581 130.833 71.3377 131.493 71.9987C132.154 72.6596 163.769 71.9987 163.769 71.9987C163.769 71.9987 164.1 71.3378 164.1 70.2362C164.1 69.1346 164.756 68.4789 164.756 68.4789V66.4102L162.778 59.2205L166.303 27.0547L156.058 20.9961Z" fill="#6C63FF"/>
<path d="M116.473 53.1294L119.174 57.8054C120.648 56.9125 127.772 52.6329 129.004 52.5334C129.468 52.4958 129.572 52.4087 129.593 52.3826C129.614 52.357 129.608 52.2996 129.595 52.2079C129.576 52.0659 129.547 51.8511 129.714 51.6677C129.958 51.3989 130.172 51.5608 130.275 51.6384C130.435 51.7594 130.704 51.9618 131.57 51.8391C131.792 51.8077 131.931 51.7809 132.019 51.7598L132.009 51.7507C131.82 51.5727 131.504 51.275 131.481 50.7967C131.461 50.3684 131.455 50.2536 131.611 50.1797C131.755 50.1124 131.868 50.2135 131.934 50.2738C132.047 50.3767 132.233 50.5448 132.616 50.5303C133.595 50.2102 142.69 37.0779 144.465 31.8464C144.908 30.5438 144.853 29.3341 144.303 28.2516C143.249 26.176 140.667 25.1363 140.03 24.9062L127.119 43.0268L116.473 53.1294Z" fill="#6C63FF"/>
<path d="M152.233 19.3013C156.951 19.3013 160.776 15.4764 160.776 10.7581C160.776 6.03978 156.951 2.21484 152.233 2.21484C147.514 2.21484 143.69 6.03978 143.69 10.7581C143.69 15.4764 147.514 19.3013 152.233 19.3013Z" fill="#A0616A"/>
<path d="M162.569 5.56536C161.818 3.95531 160.154 2.70429 158.38 2.79556C158.487 2.34867 158.289 1.87041 157.97 1.53941C157.651 1.20844 157.227 1.00132 156.802 0.827391C154.699 -0.0322259 152.332 -0.229436 150.116 0.270532C149.894 -0.0374025 146.732 0.739784 147.11 0.904777C147.488 1.0698 146.106 1.46391 146.041 1.87126C145.969 2.31756 145.496 2.59118 145.05 2.6608C144.603 2.73044 144.142 2.66265 143.698 2.74727C142.803 2.91776 143.805 4.01798 143.792 4.92889C143.779 5.83983 142.753 6.46408 143.643 6.65969C144.561 6.8616 143.291 8.48773 144.215 8.31223C146.304 7.91523 155.43 7.06877 156.242 9.03476C156.468 9.58065 156.609 10.1992 157.052 10.5896C157.656 11.1211 158.661 11.0784 159.154 11.7131C159.552 12.2248 159.438 12.9761 159.144 13.5536C158.849 14.1311 158.402 14.6229 158.135 15.2138C157.778 16.0058 157.78 16.8881 157.882 17.764C157.961 17.7228 158.083 17.6816 158.264 17.6404L158.186 17.6503C160.466 15.9896 162.141 13.5165 162.837 10.7832C163.276 9.06168 163.319 7.17541 162.569 5.56536Z" fill="#2F2E41"/>
<path d="M168.576 76.7441H153.687C151.959 76.7441 150.558 78.1449 150.558 79.8727V88.4177C150.558 90.1455 151.959 91.5462 153.687 91.5462H168.576C170.304 91.5462 171.704 90.1455 171.704 88.4177V79.8727C171.704 78.1449 170.304 76.7441 168.576 76.7441Z" fill="#6C63FF"/>
<path d="M171.544 52.8564L163.098 75.9204L159.501 75.1663L165.646 51.6621L171.544 52.8564Z" fill="#A0616A"/>
<path d="M163.199 78.7555C163.897 76.2972 163.279 73.9686 161.819 73.5544C160.359 73.1403 158.611 74.7975 157.913 77.2558C157.216 79.7142 157.834 82.0427 159.293 82.4569C160.753 82.871 162.502 81.2138 163.199 78.7555Z" fill="#A0616A"/>
<path d="M157.748 22.1875C157.748 22.1875 166.964 23.7506 169.167 28.8178C171.37 33.885 173.573 50.1882 172.912 50.8491C172.251 51.5101 171.591 50.8491 172.252 51.5101C172.912 52.171 174.032 51.3002 173.032 52.5067C172.031 53.7132 171.591 53.0523 171.591 53.4929C171.591 53.9335 172.472 53.8138 171.591 54.7549C170.709 55.696 167.845 65.3898 167.845 65.3898L162.337 63.6273L163.439 48.8663L157.748 22.1875Z" fill="#6C63FF"/>
<path d="M113.597 64.4785H98.7079C96.98 64.4785 95.5793 65.8792 95.5793 67.6071V76.152C95.5793 77.8799 96.98 79.2806 98.7079 79.2806H113.597C115.324 79.2806 116.725 77.8799 116.725 76.152V67.6071C116.725 65.8792 115.324 64.4785 113.597 64.4785Z" fill="#3F3D56"/>
</g>
<defs>
<clipPath id="clip0_4329_48863">
<rect width="200" height="151.727" fill="white"/>
</clipPath>
</defs>
</svg>
